<svg width="305" height="110" viewBox="0 0 305 110" fill="none" xmlns="http://www.w3.org/2000/svg">
<rect width="305" height="110" fill="#1B1B1B"/>
<rect x="35.9499" y="4.93274" width="97.5081" height="36.9955" fill="#D9D9D9"/>
<path d="M169.08 98.7369C165.786 98.0589 164.614 96.7964 163.909 92.7354C163.909 92.7354 163.416 22.4439 163.991 19.1555C164.565 15.867 165.795 14.7656 169.408 14.3049L201.254 14.3734C203.683 14.4993 205.44 15.6751 206.179 19.0595C206.917 22.4439 207.246 90.1868 206.425 93.8042C205.604 97.4215 204.002 98.7631 200.105 98.7369H169.08Z" fill="#D9D9D9"/>
<path d="M114.695 98.7369C111.401 98.0589 110.229 96.7964 109.524 92.7354C109.524 92.7354 109.031 22.4439 109.606 19.1555C110.18 15.867 111.41 14.7656 115.023 14.3049L146.869 14.3734C149.298 14.4993 151.055 15.6751 151.794 19.0595C152.532 22.4439 152.861 90.1868 152.04 93.8042C151.219 97.4215 149.617 98.7631 145.72 98.7369H114.695Z" stroke="#D9D9D9"/>
<path d="M60.3593 100.381C57.0654 99.7032 55.8938 98.4407 55.1884 94.3797C55.1884 94.3797 54.6959 24.0882 55.2705 20.7997C55.845 17.5112 57.0743 16.4099 60.6876 15.9492L92.5339 16.0177C94.9628 16.1435 96.72 17.3193 97.4585 20.7037C98.197 24.0882 98.5253 91.8311 97.7045 95.4484C96.8838 99.0658 95.2818 100.407 91.3846 100.381H60.3593Z" stroke="#D9D9D9"/>
<path d="M222.544 100.381C219.251 99.7032 218.079 98.4407 217.374 94.3797C217.374 94.3797 216.881 24.0882 217.456 20.7997C218.03 17.5112 219.26 16.4099 222.873 15.9492L254.719 16.0177C257.148 16.1435 258.905 17.3193 259.644 20.7037C260.382 24.0882 260.71 91.8311 259.89 95.4484C259.069 99.0658 257.467 100.407 253.57 100.381H222.544Z" stroke="#D9D9D9"/>
<ellipse cx="218.572" cy="52.2048" rx="4.35011" ry="4.35725" fill="#D9D9D9"/>
<ellipse cx="154.552" cy="52.2048" rx="4.35011" ry="4.35725" fill="#D9D9D9"/>
</svg>
