<svg width="610" height="220" viewBox="0 0 610 220" fill="none" xmlns="http://www.w3.org/2000/svg">
<rect width="610" height="220" fill="#1B1B1B"/>
<rect x="71.8998" y="9.86547" width="195.016" height="73.991" fill="#D9D9D9"/>
<path d="M338.159 197.474C331.572 196.118 329.228 193.593 327.818 185.471C327.818 185.471 326.833 44.8879 327.982 38.3109C329.131 31.7339 331.589 29.5313 338.816 28.6099L402.509 28.7468C407.366 28.9986 410.881 31.3501 412.358 38.119C413.835 44.8879 414.491 180.374 412.85 187.608C411.208 194.843 408.004 197.526 400.21 197.474H338.159Z" fill="#D9D9D9"/>
<path d="M229.389 197.474C222.801 196.118 220.458 193.593 219.047 185.471C219.047 185.471 218.062 44.8879 219.212 38.3109C220.361 31.7339 222.819 29.5313 230.046 28.6099L293.738 28.7468C298.596 28.9986 302.111 31.3501 303.588 38.119C305.065 44.8879 305.721 180.374 304.08 187.608C302.438 194.843 299.234 197.526 291.44 197.474H229.389Z" stroke="#D9D9D9"/>
<path d="M120.719 200.762C114.131 199.406 111.788 196.881 110.377 188.759C110.377 188.759 109.392 48.1764 110.541 41.5994C111.69 35.0224 114.149 32.8197 121.375 31.8983L185.068 32.0353C189.926 32.287 193.44 34.6386 194.917 41.4075C196.394 48.1764 197.051 183.662 195.409 190.897C193.768 198.132 190.564 200.815 182.769 200.762H120.719Z" stroke="#D9D9D9"/>
<path d="M445.089 200.762C438.501 199.406 436.158 196.881 434.747 188.759C434.747 188.759 433.762 48.1764 434.911 41.5994C436.06 35.0224 438.519 32.8197 445.745 31.8983L509.438 32.0353C514.296 32.287 517.81 34.6386 519.287 41.4075C520.764 48.1764 521.421 183.662 519.779 190.897C518.138 198.132 514.934 200.815 507.139 200.762H445.089Z" stroke="#D9D9D9"/>
<ellipse cx="437.145" cy="104.41" rx="8.70021" ry="8.7145" fill="#D9D9D9"/>
<ellipse cx="309.104" cy="104.41" rx="8.70021" ry="8.7145" fill="#D9D9D9"/>
</svg>
