<svg width="386" height="220" viewBox="0 0 386 220" fill="none" xmlns="http://www.w3.org/2000/svg">
<rect width="386" height="220" fill="#1B1B1B"/>
<path d="M101.333 113C108 113 113.333 118.333 113.333 125C113.333 127.347 112.667 129.533 111.493 131.4L119.707 139.667L116 143.373L107.68 135.187C105.84 136.333 103.653 137 101.333 137C94.6666 137 89.3333 131.667 89.3333 125C89.3333 118.333 94.6666 113 101.333 113ZM101.333 118.333C99.5652 118.333 97.8695 119.036 96.6193 120.286C95.369 121.536 94.6666 123.232 94.6666 125C94.6666 126.768 95.369 128.464 96.6193 129.714C97.8695 130.964 99.5652 131.667 101.333 131.667C103.101 131.667 104.797 130.964 106.047 129.714C107.298 128.464 108 126.768 108 125C108 123.232 107.298 121.536 106.047 120.286C104.797 119.036 103.101 118.333 101.333 118.333ZM112 86.3333C112.354 86.3333 112.693 86.4737 112.943 86.7238C113.193 86.9738 113.333 87.313 113.333 87.6666V112.493C111.787 111.027 110 109.827 108 109V93.5333L100 96.6266V107.667C98.1333 107.853 96.32 108.307 94.6666 109V96.6533L84 92.9199V124.013V125C84 126.707 84.24 128.36 84.6933 129.907L81.3333 128.733L67.0933 134.253L66.6666 134.333C66.313 134.333 65.9739 134.193 65.7238 133.943C65.4738 133.693 65.3333 133.354 65.3333 133V92.6799C65.3333 92.0666 65.7333 91.5866 66.2933 91.3999L81.3333 86.3333L97.3333 91.9333L111.573 86.4133L112 86.3333ZM70.6666 95.5599V127.16L78.6666 124.067V92.8666L70.6666 95.5599Z" fill="white"/>
<path d="M241 33.2314L241.668 199.989C241.909 200.9 242.669 201.663 243.17 201.831C243.671 201.999 352.846 201.831 352.846 201.831C355.161 201.69 356.17 201.319 356.852 199.487V31.0548C356.852 31.0548 331.979 19.0004 296.422 19C260.865 18.9996 241 31.0548 241 31.0548V32.3942V33.2314Z" fill="white" stroke="black"/>
<rect x="262.701" y="35.073" width="67.7751" height="14.7336" fill="#D9D9D9"/>
<rect x="286.406" y="57.5083" width="26.0417" height="5.35769" fill="#D9D9D9"/>
<rect x="272.384" y="67.5537" width="52.0833" height="7.36682" fill="#D9D9D9"/>
<rect x="286.406" y="81.6177" width="26.0417" height="4.68798" fill="#D9D9D9"/>
<rect x="257.026" y="89.3193" width="86.4717" height="9.71081" fill="#D9D9D9"/>
<rect x="257.026" y="103.383" width="86.4717" height="18.7519" fill="#D9D9D9"/>
<rect x="274.721" y="128.163" width="49.7463" height="20.4262" fill="#D9D9D9"/>
<rect x="267.042" y="159.304" width="67.7751" height="17.4125" fill="#D9D9D9"/>
</svg>
