<svg width="386" height="220" viewBox="0 0 386 220" fill="none" xmlns="http://www.w3.org/2000/svg">
<rect width="386" height="220" fill="#1B1B1B"/>
<path d="M298.333 117C305 117 310.333 122.333 310.333 129C310.333 131.347 309.667 133.533 308.493 135.4L316.707 143.667L313 147.373L304.68 139.187C302.84 140.333 300.653 141 298.333 141C291.667 141 286.333 135.667 286.333 129C286.333 122.333 291.667 117 298.333 117ZM298.333 122.333C296.565 122.333 294.87 123.036 293.619 124.286C292.369 125.536 291.667 127.232 291.667 129C291.667 130.768 292.369 132.464 293.619 133.714C294.87 134.964 296.565 135.667 298.333 135.667C300.101 135.667 301.797 134.964 303.047 133.714C304.298 132.464 305 130.768 305 129C305 127.232 304.298 125.536 303.047 124.286C301.797 123.036 300.101 122.333 298.333 122.333ZM309 90.3333C309.354 90.3333 309.693 90.4737 309.943 90.7238C310.193 90.9738 310.333 91.313 310.333 91.6666V116.493C308.787 115.027 307 113.827 305 113V97.5333L297 100.627V111.667C295.133 111.853 293.32 112.307 291.667 113V100.653L281 96.9199V128.013V129C281 130.707 281.24 132.36 281.693 133.907L278.333 132.733L264.093 138.253L263.667 138.333C263.313 138.333 262.974 138.193 262.724 137.943C262.474 137.693 262.333 137.354 262.333 137V96.6799C262.333 96.0666 262.733 95.5866 263.293 95.3999L278.333 90.3333L294.333 95.9333L308.573 90.4133L309 90.3333ZM267.667 99.5599V131.16L275.667 128.067V96.8666L267.667 99.5599Z" fill="white"/>
<path d="M43 33.2314L43.6677 199.989C43.9089 200.9 44.6693 201.663 45.1701 201.831C45.6709 201.999 154.846 201.831 154.846 201.831C157.161 201.69 158.17 201.319 158.852 199.487V31.0548C158.852 31.0548 133.979 19.0004 98.422 19C62.8651 18.9996 43 31.0548 43 31.0548V32.3942V33.2314Z" fill="white" stroke="black"/>
<rect x="64.7014" y="35.073" width="67.7751" height="14.7336" fill="#D9D9D9"/>
<rect x="88.406" y="57.5083" width="26.0417" height="5.35769" fill="#D9D9D9"/>
<rect x="74.3835" y="67.5537" width="52.0833" height="7.36682" fill="#D9D9D9"/>
<rect x="88.406" y="81.6177" width="26.0417" height="4.68798" fill="#D9D9D9"/>
<rect x="59.0256" y="89.3193" width="86.4717" height="9.71081" fill="#D9D9D9"/>
<rect x="59.0256" y="103.383" width="86.4717" height="18.7519" fill="#D9D9D9"/>
<rect x="76.7206" y="128.163" width="49.7463" height="20.4262" fill="#D9D9D9"/>
<rect x="69.0416" y="159.304" width="67.7751" height="17.4125" fill="#D9D9D9"/>
</svg>
